Coordinates
version=1
nRows=14
nColumns=46
inDegrees=yes

Units are S.I. units (second, meters, Newtons, ...)
Angles are in degrees.

endheader
time	pelvis_tilt	pelvis_list	pelvis_rotation	pelvis_tx	pelvis_ty	pelvis_tz	bb_angle	bb_tx	bb_ty	bb_tz	hip_flexion_r	hip_adduction_r	hip_rotation_r	knee_angle_r	knee_angle_r_beta	ankle_angle_r	subtalar_angle_r	mtp_angle_r	crank_angle_r	hip_flexion_l	hip_adduction_l	hip_rotation_l	knee_angle_l	knee_angle_l_beta	ankle_angle_l	subtalar_angle_l	mtp_angle_l	crank_angle_l	lumbar_extension	lumbar_bending	lumbar_rotation	arm_flex_r	arm_add_r	arm_rot_r	elbow_flex_r	pro_sup_r	wrist_flex_r	wrist_dev_r	arm_flex_l	arm_add_l	arm_rot_l	elbow_flex_l	pro_sup_l	wrist_flex_l	wrist_dev_l
      0.00500000	    -27.72488691	     -1.31401385	     -4.53838500	      0.12955303	      1.03089166	     -0.20669113	      0.00000000	      0.50000000	      0.00000000	      0.25000000	     92.57550400	      0.72654693	      1.07701402	     80.48940269	      1.40480509	      0.85448387	     -7.29472062	      0.00000000	      0.00000000	     57.46995028	     -6.31640065	      4.03366132	     72.87378188	      1.27188743	     16.03102127	    -12.54054727	      0.00000000	      0.00000000	    -33.17066154	      0.76669416	      4.25048029	     83.57466023	     -4.50317911	     36.98616743	     27.50234402	     42.05982410	      0.00000000	      0.00000000	     78.55357427	     -8.19104422	     26.28119579	     29.51482352	     42.21915981	      0.00000000	      0.00000000
      0.01000000	    -27.70909519	     -1.30029340	     -4.52987050	      0.12956179	      1.03093280	     -0.20671792	      0.00000000	      0.50000000	      0.00000000	      0.25000000	     92.55806116	      0.71482467	      1.09636157	     80.49055192	      1.40482515	      0.90371048	     -7.22648552	      0.00000000	      0.00000000	     57.44437923	     -6.29440254	      4.02696217	     72.85158358	      1.27150000	     16.01434172	    -12.55611458	      0.00000000	      0.00000000	    -33.18503775	      0.75375458	      4.20250777	     83.54157843	     -4.13361062	     35.84296395	     27.27813929	     42.11087081	      0.00000000	      0.00000000	     78.54925442	     -7.97295002	     25.43513735	     29.41943767	     42.12113062	      0.00000000	      0.00000000
      0.01500000	    -27.75364536	     -1.33773027	     -4.54356914	      0.12950766	      1.03082447	     -0.20671312	      0.00000000	      0.50000000	      0.00000000	      0.25000000	     92.60848182	      0.73043521	      1.04630837	     80.48792480	      1.40477930	      0.78965596	     -7.37216815	      0.00000000	      0.00000000	     57.50920664	     -6.33026967	      4.05548691	     72.87563118	      1.27191971	     15.99426836	    -12.59201062	      0.00000000	      0.00000000	    -33.12952898	      0.79363565	      4.26513334	     83.58299664	     -4.29270239	     36.38264327	     27.24775234	     42.30481669	      0.00000000	      0.00000000	     78.54566428	     -8.04626484	     25.87063205	     29.39214337	     42.25555912	      0.00000000	      0.00000000
      0.02000000	    -27.75617840	     -1.32480601	     -4.53277491	      0.12959294	      1.03092378	     -0.20683183	      0.00000000	      0.50000000	      0.00000000	      0.25000000	     92.60270257	      0.70452987	      1.07495453	     80.51084713	      1.40517937	      0.90311427	     -7.25179194	      0.00000000	      0.00000000	     57.45983904	     -6.28386773	      4.06305842	     72.80091785	      1.27061571	     16.00279085	    -12.64089077	      0.00000000	      0.00000000	    -33.15452540	      0.77056720	      4.24979099	     83.65601113	     -4.93870032	     38.29377654	     27.61260207	     42.79123051	      0.00000000	      0.00000000	     78.59123806	     -8.42375335	     27.19790983	     29.54070624	     42.47563531	      0.00000000	      0.00000000
      0.02500000	    -27.73926737	     -1.37651320	     -4.53017429	      0.12951362	      1.03104456	     -0.20683447	      0.00000000	      0.50000000	      0.00000000	      0.25000000	     92.59521957	      0.67816614	      0.98612791	     80.53102608	      1.40553156	      0.92444510	     -7.27801739	      0.00000000	      0.00000000	     57.44949584	     -6.33316303	      4.11023634	     72.80435550	      1.27067571	     16.08256966	    -12.36076377	      0.00000000	      0.00000000	    -33.16946732	      0.82163374	      4.24440405	     83.66748558	     -4.82040179	     37.93191782	     27.54532409	     42.77434059	      0.00000000	      0.00000000	     78.53727299	     -8.38181161	     26.80826272	     29.60572303	     42.46622659	      0.00000000	      0.00000000
      0.03000000	    -27.74493442	     -1.35096897	     -4.54319899	      0.12953646	      1.03114959	     -0.20679665	      0.00000000	      0.50000000	      0.00000000	      0.25000000	     92.59300024	      0.70408867	      1.04401643	     80.52271156	      1.40538644	      0.96585549	     -7.22462242	      0.00000000	      0.00000000	     57.43357307	     -6.32966000	      4.05119585	     72.75307916	      1.26978077	     15.94380020	    -12.63943980	      0.00000000	      0.00000000	    -33.15735501	      0.78235749	      4.23650216	     83.62609424	     -4.47679476	     36.98920569	     27.30854911	     42.52684951	      0.00000000	      0.00000000	     78.56403868	     -8.08405040	     26.00088405	     29.42149162	     42.14211182	      0.00000000	      0.00000000
      0.03500000	    -27.75735591	     -1.35126597	     -4.52775768	      0.12952120	      1.03114860	     -0.20688833	      0.00000000	      0.50000000	      0.00000000	      0.25000000	     92.60809196	      0.67226611	      1.04466535	     80.53567829	      1.40561275	      1.00084062	     -7.18790886	      0.00000000	      0.00000000	     57.43886058	     -6.30132203	      4.07642793	     72.72518248	      1.26929388	     15.89535528	    -12.69339329	      0.00000000	      0.00000000	    -33.13885874	      0.81043386	      4.22053077	     83.69732999	     -4.59012671	     37.46105107	     27.26435948	     42.65935659	      0.00000000	      0.00000000	     78.60400019	     -8.18209316	     26.35552558	     29.33721127	     42.24408208	      0.00000000	      0.00000000
      0.04000000	    -27.76201411	     -1.36321280	     -4.54079108	      0.12947950	      1.03108057	     -0.20686970	      0.00000000	      0.50000000	      0.00000000	      0.25000000	     92.63661262	      0.68541603	      1.02740450	     80.56209164	      1.40607375	      0.89646421	     -7.26316329	      0.00000000	      0.00000000	     57.44903134	     -6.32191700	      4.07779116	     72.73076322	      1.26939129	     15.94852456	    -12.70882592	      0.00000000	      0.00000000	    -33.12341876	      0.83526060	      4.29444519	     83.75703820	     -4.69821588	     37.74265835	     27.27978797	     42.73895110	      0.00000000	      0.00000000	     78.55653740	     -8.20545353	     26.55686176	     29.34785740	     42.31234003	      0.00000000	      0.00000000
      0.04500000	    -27.81783287	     -1.44411308	     -4.53635555	      0.12940425	      1.03102754	     -0.20687467	      0.00000000	      0.50000000	      0.00000000	      0.25000000	     92.66197169	      0.69751933	      0.93247416	     80.51510588	      1.40525370	      0.84798937	     -7.43595607	      0.00000000	      0.00000000	     57.53930561	     -6.37835920	      4.15370289	     72.75767049	      1.26986091	     15.88310211	    -12.74176721	      0.00000000	      0.00000000	    -33.08442284	      0.90099085	      4.31630314	     83.62244322	     -4.57425357	     36.92763619	     27.43538828	     42.52010972	      0.00000000	      0.00000000	     78.47121252	     -8.11186650	     25.98049960	     29.55656858	     42.10264767	      0.00000000	      0.00000000
      0.05000000	    -27.83329101	     -1.36611097	     -4.54586399	      0.12940704	      1.03095747	     -0.20676737	      0.00000000	      0.50000000	      0.00000000	      0.25000000	     92.70064542	      0.72686905	      1.05787367	     80.56171243	      1.40606713	      0.99027186	     -7.22482704	      0.00000000	      0.00000000	     57.54823345	     -6.33396853	      4.10158391	     72.75843905	      1.26987432	     15.90491379	    -12.72518569	      0.00000000	      0.00000000	    -33.14834985	      0.74845465	      4.23435878	     83.10698899	     -4.87696914	     35.66606023	     29.15773348	     42.67009769	      0.00000000	      0.00000000	     78.00914214	     -8.35273908	     25.09470005	     31.11038490	     42.27602049	      0.00000000	      0.00000000
      0.05500000	    -27.70542066	     -1.36088550	     -4.53782114	      0.12944558	      1.03125128	     -0.20690068	      0.00000000	      0.50000000	      0.00000000	      0.25000000	     92.56481441	      0.67433865	      1.03253478	     80.56206793	      1.40607334	      1.06058118	     -7.15158200	      0.00000000	      0.00000000	     57.37083903	     -6.31304774	      4.07609600	     72.68499046	      1.26859240	     15.91588531	    -12.68976287	      0.00000000	      0.00000000	    -33.20377561	      0.78410729	      4.23390568	     83.74441292	     -4.59945884	     37.50487844	     27.17318369	     42.68199923	      0.00000000	      0.00000000	     78.65722568	     -8.16211807	     26.31552712	     29.28714931	     42.20891182	      0.00000000	      0.00000000
      0.06000000	    -27.69884566	     -1.33405048	     -4.54136221	      0.12945478	      1.03129755	     -0.20691037	      0.00000000	      0.50000000	      0.00000000	      0.25000000	     92.56434979	      0.66579849	      1.05778450	     80.56818557	      1.40618011	      1.07877131	     -7.09322097	      0.00000000	      0.00000000	     57.34127453	     -6.29297513	      4.05240932	     72.64552151	      1.26790354	     15.93659138	    -12.67287215	      0.00000000	      0.00000000	    -33.26479487	      0.76897373	      4.24790460	     83.53771235	     -4.72810909	     36.86033240	     27.97838834	     42.75702031	      0.00000000	      0.00000000	     78.40806336	     -8.27515779	     25.84224725	     30.05286403	     42.29630015	      0.00000000	      0.00000000
      0.06500000	    -27.72982918	     -1.37402485	     -4.55440608	      0.12940583	      1.03118995	     -0.20689947	      0.00000000	      0.50000000	      0.00000000	      0.25000000	     92.60689691	      0.67718759	      0.99429306	     80.58711722	      1.40651053	      1.03487159	     -7.16913791	      0.00000000	      0.00000000	     57.39422458	     -6.33656981	      4.07226724	     72.67524693	      1.26842234	     15.91965775	    -12.73153724	      0.00000000	      0.00000000	    -33.17233172	      0.78460464	      4.26645074	     83.70884816	     -4.62704522	     37.37214701	     27.28145238	     42.76341738	      0.00000000	      0.00000000	     78.58275017	     -8.14022084	     26.19759146	     29.37412888	     42.27976429	      0.00000000	      0.00000000
      0.07000000	    -27.70841239	     -1.41576907	     -4.54524835	      0.12935116	      1.03127240	     -0.20686959	      0.00000000	      0.50000000	      0.00000000	      0.25000000	     92.57610981	      0.66266635	      0.93356221	     80.57145424	      1.40623716	      1.02268544	     -7.20909190	      0.00000000	      0.00000000	     57.37490467	     -6.35619772	      4.12081656	     72.66478009	      1.26823966	     15.90729972	    -12.70471775	      0.00000000	      0.00000000	    -33.20210291	      0.82299056	      4.26794907	     83.61587706	     -3.92479080	     34.99625382	     26.91137507	     42.48240768	      0.00000000	      0.00000000	     78.60601146	     -7.65953740	     24.52078034	     29.21210633	     41.98961488	      0.00000000	      0.00000000
